<svg width="40" height="40" viewBox="0 0 40 40" fill="none" xmlns="http://www.w3.org/2000/svg">
<g clip-path="url(#clip0_206_2)">
<mask id="mask0_206_2" style="mask-type:luminance" maskUnits="userSpaceOnUse" x="0" y="9" width="40" height="22">
<path d="M0.5625 20.1111C0.5625 25.9276 9.26517 30.6429 20 30.6429C30.7349 30.6429 39.4376 25.9276 39.4376 20.1111C39.4376 14.2947 30.7349 9.57932 20 9.57932C9.26517 9.57932 0.5625 14.2947 0.5625 20.1111Z" fill="white"/>
</mask>
<g mask="url(#mask0_206_2)">
<path d="M0.5625 20.1111C0.5625 25.9276 9.26517 30.6429 20 30.6429C30.7349 30.6429 39.4376 25.9276 39.4376 20.1111C39.4376 14.2947 30.7349 9.57932 20 9.57932C9.26517 9.57932 0.5625 14.2947 0.5625 20.1111Z" fill="url(#paint0_radial_206_2)"/>
</g>
<mask id="mask1_206_2" style="mask-type:luminance" maskUnits="userSpaceOnUse" x="-1" y="8" width="42" height="24">
<path d="M-0.247437 8.38007H40.2474V31.8422H-0.247437V8.38007Z" fill="white"/>
</mask>
<g mask="url(#mask1_206_2)">
<path d="M20 29.861C30.3156 29.861 38.6783 25.4958 38.6783 20.1111C38.6783 14.7265 30.3156 10.3612 20 10.3612C9.68446 10.3612 1.32178 14.7265 1.32178 20.1111C1.32178 25.4958 9.68446 29.861 20 29.861Z" fill="#777BB3"/>
</g>
<mask id="mask2_206_2" style="mask-type:luminance" maskUnits="userSpaceOnUse" x="-1" y="8" width="42" height="24">
<path d="M-0.247437 8.38007H40.2474V31.8422H-0.247437V8.38007Z" fill="white"/>
</mask>
<g mask="url(#mask2_206_2)">
<path d="M11.123 21.32C11.9713 21.32 12.6045 21.1589 13.0051 20.8412C13.4015 20.5269 13.6753 19.9823 13.8188 19.2226C13.9526 18.5125 13.9016 18.0167 13.6673 17.7491C13.4278 17.4758 12.91 17.3372 12.1282 17.3372H10.7727L10.0212 21.32H11.123ZM6.68949 26.226C6.62657 26.226 6.56681 26.197 6.52681 26.1469C6.48674 26.0969 6.47049 26.031 6.48252 25.9674L8.47408 15.413C8.49334 15.3109 8.58016 15.2372 8.68112 15.2372H12.9734C14.3224 15.2372 15.3265 15.6145 15.9576 16.3587C16.5921 17.1068 16.788 18.1525 16.5399 19.4668C16.439 20.0022 16.2653 20.4995 16.0238 20.9447C15.7821 21.3904 15.4625 21.8028 15.074 22.1706C14.6088 22.619 14.0824 22.9441 13.5107 23.1355C12.9481 23.3242 12.2255 23.42 11.3631 23.42H9.62502L9.12867 26.0502C9.10941 26.1523 9.02266 26.226 8.9217 26.226H6.68949Z" fill="black"/>
<path d="M10.9465 17.5544H12.1282C13.0717 17.5544 13.3995 17.7677 13.5108 17.8947C13.6956 18.1058 13.7305 18.5507 13.6117 19.1813C13.4783 19.8874 13.2309 20.388 12.8765 20.6691C12.5136 20.9568 11.9236 21.1027 11.123 21.1027H10.277L10.9465 17.5544ZM12.9734 15.0199H8.68104C8.47913 15.0199 8.30555 15.1674 8.26702 15.3715L6.27546 25.9259C6.25142 26.0533 6.2839 26.185 6.36397 26.2851C6.44412 26.3853 6.56349 26.4432 6.68948 26.4432H8.92162C9.1236 26.4432 9.29718 26.2958 9.3357 26.0916L9.79886 23.6372H11.363C12.2476 23.6372 12.9923 23.5378 13.5761 23.3419C14.1766 23.141 14.729 22.8003 15.218 22.3293C15.6224 21.9461 15.9555 21.5159 16.2079 21.0507C16.4603 20.5853 16.6417 20.0663 16.747 19.5081C17.0081 18.1247 16.796 17.0169 16.1164 16.2158C15.4435 15.4223 14.386 15.0199 12.9734 15.0199ZM9.76526 21.5372H11.123C12.023 21.5372 12.6933 21.3626 13.1338 21.0133C13.5743 20.664 13.8714 20.081 14.0258 19.264C14.1735 18.4796 14.1062 17.9261 13.824 17.6036C13.5413 17.2812 12.9762 17.1199 12.1282 17.1199H10.5988L9.76526 21.5372ZM12.9734 15.4544C14.2647 15.4544 15.2067 15.8034 15.7988 16.5016C16.3908 17.1997 16.5691 18.1742 16.3329 19.4253C16.2356 19.9407 16.0712 20.4119 15.8397 20.8387C15.6079 21.2659 15.3053 21.6565 14.9312 22.0107C14.4855 22.4403 13.9904 22.7465 13.4455 22.9288C12.9007 23.1117 12.2067 23.2027 11.363 23.2027H9.45107L8.92162 26.0087H6.68948L8.68104 15.4544H12.9734Z" fill="white"/>
<path d="M21.6579 23.42C21.5949 23.42 21.5352 23.391 21.4952 23.3409C21.455 23.2908 21.4388 23.225 21.4508 23.1613L22.3318 18.4914C22.4156 18.0473 22.3949 17.7285 22.2737 17.5938C22.1994 17.5115 21.9764 17.3734 21.317 17.3734H19.721L18.6134 23.2441C18.5941 23.3462 18.5073 23.42 18.4063 23.42H16.1918C16.1288 23.42 16.0691 23.391 16.029 23.3409C15.9889 23.2908 15.9727 23.2249 15.9847 23.1613L17.9763 12.6069C17.9955 12.5049 18.0824 12.4311 18.1833 12.4311H20.3979C20.4609 12.4311 20.5206 12.4601 20.5606 12.5102C20.6007 12.5603 20.6169 12.6261 20.6049 12.6898L20.1243 15.2372H21.8413C23.1493 15.2372 24.0362 15.4747 24.5528 15.9634C25.0794 16.4618 25.2437 17.2589 25.0412 18.3327L24.1146 23.2441C24.0954 23.3462 24.0086 23.42 23.9076 23.42H21.6579Z" fill="black"/>
<path d="M20.398 12.2139H18.1834C17.9814 12.2139 17.8079 12.3613 17.7693 12.5655L15.7778 23.1199C15.7537 23.2472 15.7862 23.3789 15.8664 23.4791C15.9465 23.5792 16.0659 23.6372 16.1919 23.6372H18.4064C18.6083 23.6372 18.782 23.4897 18.8205 23.2856L19.895 17.5906H21.3171C21.9754 17.5906 22.1135 17.7354 22.1191 17.7417C22.159 17.7859 22.2115 17.9908 22.1249 18.45L21.2439 23.1199C21.2198 23.2472 21.2523 23.3789 21.3325 23.4791C21.4126 23.5792 21.532 23.6372 21.658 23.6372H23.9077C24.1096 23.6372 24.2832 23.4897 24.3218 23.2856L25.2483 18.3741C25.4658 17.2212 25.2797 16.3564 24.6956 15.8034C24.1383 15.2762 23.2046 15.0199 21.8414 15.0199H20.3802L20.8121 12.7313C20.8361 12.6039 20.8036 12.4721 20.7235 12.372C20.6433 12.2719 20.524 12.2139 20.398 12.2139ZM20.398 12.6484L19.8685 15.4544H21.8414C23.0827 15.4544 23.939 15.6776 24.4102 16.1234C24.8815 16.5694 25.0226 17.2922 24.8343 18.2913L23.9077 23.2027H21.658L22.5389 18.5329C22.6392 18.0016 22.6024 17.6393 22.4283 17.4461C22.2541 17.2529 21.8837 17.1561 21.3171 17.1561H19.5472L18.4064 23.2027H16.1919L18.1834 12.6484H20.398Z" fill="white"/>
<path d="M28.5453 21.32C29.3935 21.32 30.0267 21.1589 30.4274 20.8412C30.8237 20.527 31.0975 19.9823 31.2411 19.2226C31.3749 18.5125 31.3239 18.0167 31.0896 17.7491C30.85 17.4758 30.3322 17.3372 29.5504 17.3372H28.1949L27.4434 21.32H28.5453ZM24.1118 26.226C24.0489 26.226 23.9891 26.197 23.9491 26.1469C23.909 26.0969 23.8927 26.031 23.9047 25.9674L25.8963 15.413C25.9156 15.3109 26.0024 15.2372 26.1034 15.2372H30.3957C31.7447 15.2372 32.7487 15.6145 33.3799 16.3587C34.0144 17.1067 34.2103 18.1524 33.9622 19.4668C33.8611 20.0022 33.6876 20.4995 33.4461 20.9447C33.2043 21.3904 32.8848 21.8028 32.4962 22.1706C32.0311 22.619 31.5046 22.9441 30.9329 23.1355C30.3703 23.3242 29.6477 23.42 28.7853 23.42H27.0472L26.551 26.0502C26.5317 26.1523 26.445 26.226 26.3439 26.226H24.1118Z" fill="black"/>
<path d="M28.3688 17.5544H29.5505C30.494 17.5544 30.8218 17.7677 30.9331 17.8947C31.1179 18.1058 31.1528 18.5507 31.034 19.1813C30.9006 19.8874 30.6532 20.388 30.2988 20.6691C29.9359 20.9568 29.3459 21.1027 28.5453 21.1027H27.6994L28.3688 17.5544ZM30.3957 15.0199H26.1034C25.9015 15.0199 25.7279 15.1674 25.6894 15.3715L23.6978 25.9259C23.6738 26.0533 23.7063 26.185 23.7863 26.2851C23.8665 26.3853 23.9859 26.4432 24.1118 26.4432H26.344C26.5459 26.4432 26.7195 26.2958 26.7581 26.0916L27.2212 23.6372H28.7853C29.6699 23.6372 30.4146 23.5378 30.9984 23.3419C31.5989 23.141 32.1515 22.8002 32.6404 22.3292C33.0448 21.946 33.3778 21.5159 33.6302 21.0507C33.8826 20.5853 34.064 20.0663 34.1693 19.5081C34.4304 18.1247 34.2183 17.0169 33.5387 16.2157C32.8658 15.4223 31.8083 15.0199 30.3957 15.0199ZM27.1876 21.5372H28.5453C29.4453 21.5372 30.1156 21.3626 30.5561 21.0133C30.9967 20.664 31.2937 20.081 31.4481 19.264C31.5959 18.4796 31.5286 17.9261 31.2462 17.6036C30.9636 17.2812 30.3985 17.1199 29.5505 17.1199H28.0211L27.1876 21.5372ZM30.3957 15.4544C31.687 15.4544 32.629 15.8034 33.2211 16.5016C33.8132 17.1997 33.9914 18.1742 33.7552 19.4253C33.6579 19.9407 33.4935 20.4119 33.262 20.8387C33.0302 21.2659 32.7275 21.6565 32.3535 22.0107C31.9078 22.4403 31.4127 22.7465 30.8678 22.9288C30.323 23.1117 29.629 23.2027 28.7853 23.2027H26.8734L26.344 26.0087H24.1118L26.1034 15.4544H30.3957Z" fill="white"/>
</g>
</g>
<defs>
<radialGradient id="paint0_radial_206_2" cx="0" cy="0" r="1" gradientUnits="userSpaceOnUse" gradientTransform="translate(12.2329 13.282) scale(25.5243 26.2904)">
<stop stop-color="#AEB2D5"/>
<stop offset="0.3" stop-color="#AEB2D5"/>
<stop offset="0.75" stop-color="#484C89"/>
<stop offset="1" stop-color="#484C89"/>
</radialGradient>
<clipPath id="clip0_206_2">
<rect width="40" height="22.2222" fill="white" transform="translate(0 9)"/>
</clipPath>
</defs>
</svg>
