<svg width="16" height="16" viewBox="0 0 16 16" fill="none" xmlns="http://www.w3.org/2000/svg">
<g clip-path="url(#clip0_206_2)">
<mask id="mask0_206_2" style="mask-type:luminance" maskUnits="userSpaceOnUse" x="0" y="3" width="16" height="9">
<path d="M0.224976 7.5C0.224976 9.85568 3.70604 11.7654 7.99999 11.7654C12.2939 11.7654 15.775 9.85568 15.775 7.5C15.775 5.14435 12.2939 3.23462 7.99999 3.23462C3.70604 3.23462 0.224976 5.14435 0.224976 7.5Z" fill="white"/>
</mask>
<g mask="url(#mask0_206_2)">
<path d="M0.224976 7.5C0.224976 9.85568 3.70604 11.7654 7.99999 11.7654C12.2939 11.7654 15.775 9.85568 15.775 7.5C15.775 5.14435 12.2939 3.23462 7.99999 3.23462C3.70604 3.23462 0.224976 5.14435 0.224976 7.5Z" fill="url(#paint0_radial_206_2)"/>
</g>
<mask id="mask1_206_2" style="mask-type:luminance" maskUnits="userSpaceOnUse" x="-1" y="2" width="18" height="11">
<path d="M-0.098999 2.74892H16.0989V12.2511H-0.098999V2.74892Z" fill="white"/>
</mask>
<g mask="url(#mask1_206_2)">
<path d="M7.99999 11.4487C12.1262 11.4487 15.4713 9.68077 15.4713 7.49997C15.4713 5.3192 12.1262 3.55127 7.99999 3.55127C3.87376 3.55127 0.528687 5.3192 0.528687 7.49997C0.528687 9.68077 3.87376 11.4487 7.99999 11.4487Z" fill="#777BB3"/>
</g>
<mask id="mask2_206_2" style="mask-type:luminance" maskUnits="userSpaceOnUse" x="-1" y="2" width="18" height="11">
<path d="M-0.098999 2.74892H16.0989V12.2511H-0.098999V2.74892Z" fill="white"/>
</mask>
<g mask="url(#mask2_206_2)">
<path d="M4.44919 7.98956C4.78848 7.98956 5.04177 7.9243 5.20203 7.79567C5.36058 7.66836 5.47009 7.44779 5.52748 7.14011C5.581 6.85252 5.56061 6.65172 5.46691 6.54335C5.3711 6.43267 5.16396 6.37654 4.85125 6.37654H4.30904L4.00845 7.98956H4.44919ZM2.67577 9.9765C2.6506 9.9765 2.6267 9.96477 2.6107 9.94448C2.59467 9.92421 2.58817 9.89752 2.59298 9.87174L3.38961 5.59721C3.39731 5.55589 3.43204 5.52604 3.47242 5.52604H5.18935C5.72894 5.52604 6.13057 5.67883 6.38302 5.98023C6.63682 6.28322 6.71519 6.70674 6.61595 7.239C6.57557 7.45585 6.50611 7.65724 6.40951 7.83755C6.3128 8.01806 6.18499 8.18508 6.02956 8.33407C5.84351 8.51566 5.63294 8.64734 5.40425 8.72483C5.1792 8.80129 4.89017 8.84006 4.5452 8.84006H3.84998L3.65145 9.90529C3.64374 9.94665 3.60904 9.9765 3.56866 9.9765H2.67577Z" fill="black"/>
<path d="M4.3786 6.46452H4.85127C5.22868 6.46452 5.35978 6.55089 5.40433 6.60236C5.47823 6.68782 5.49218 6.86801 5.44468 7.12342C5.39131 7.40937 5.29238 7.61211 5.15059 7.72596C5.00543 7.84251 4.76943 7.90157 4.44921 7.90157H4.1108L4.3786 6.46452ZM5.18937 5.43805H3.47241C3.39165 5.43805 3.32222 5.49776 3.30681 5.58044L2.51018 9.85497C2.50057 9.90655 2.51356 9.9599 2.54559 10.0005C2.57765 10.041 2.6254 10.0645 2.67579 10.0645H3.56865C3.64944 10.0645 3.71887 10.0048 3.73428 9.9221L3.91955 8.92804H4.54522C4.89904 8.92804 5.19691 8.8878 5.43045 8.80847C5.67064 8.72709 5.89162 8.5891 6.0872 8.39835C6.24896 8.24315 6.3822 8.06894 6.48315 7.88051C6.58414 7.69203 6.65669 7.48183 6.69879 7.25578C6.80326 6.6955 6.71839 6.24685 6.44657 5.92237C6.17739 5.601 5.75438 5.43805 5.18937 5.43805ZM3.9061 8.07754H4.44921C4.8092 8.07754 5.07733 8.00683 5.25351 7.86538C5.42972 7.72391 5.54856 7.48779 5.61032 7.15691C5.6694 6.83924 5.64249 6.61506 5.52958 6.48446C5.41653 6.35387 5.19047 6.28855 4.85127 6.28855H4.23951L3.9061 8.07754ZM5.18937 5.61402C5.70588 5.61402 6.08267 5.75538 6.31951 6.03812C6.55632 6.32087 6.62764 6.71553 6.53315 7.22223C6.49426 7.43095 6.42848 7.62179 6.33588 7.79467C6.24316 7.96768 6.1221 8.12587 5.97249 8.26931C5.7942 8.44331 5.59615 8.56731 5.3782 8.64116C5.16026 8.71521 4.88268 8.75207 4.54522 8.75207H3.78043L3.56865 9.88852H2.67579L3.47241 5.61402H5.18937Z" fill="white"/>
<path d="M8.66315 8.84006C8.63795 8.84006 8.61407 8.82833 8.59807 8.80803C8.58201 8.78777 8.57552 8.76111 8.58033 8.7353L8.93272 6.84399C8.96624 6.66412 8.95797 6.53502 8.90946 6.48047C8.87976 6.44713 8.79056 6.3912 8.52681 6.3912H7.8884L7.44535 8.76885C7.43764 8.8102 7.40291 8.84006 7.36253 8.84006H6.4767C6.45151 8.84006 6.42763 8.82833 6.4116 8.80803C6.39557 8.78777 6.38908 8.76108 6.39389 8.7353L7.19051 4.46077C7.19821 4.41945 7.23294 4.38959 7.27333 4.38959H8.15915C8.18435 4.38959 8.20822 4.40132 8.22425 4.42159C8.24028 4.44188 8.24678 4.46854 8.24197 4.49435L8.04973 5.52604H8.73651C9.25971 5.52604 9.61449 5.62223 9.82113 5.82013C10.0318 6.02203 10.0975 6.34483 10.0165 6.7797L9.64585 8.76885C9.63814 8.8102 9.60344 8.84006 9.56303 8.84006H8.66315Z" fill="black"/>
<path d="M8.15917 4.30161H7.27335C7.19255 4.30161 7.12312 4.36132 7.10771 4.44399L6.31109 8.71852C6.30147 8.77011 6.31446 8.82346 6.34652 8.86402C6.37858 8.90458 6.42633 8.92804 6.47672 8.92804H7.36255C7.44331 8.92804 7.51277 8.86833 7.52818 8.78565L7.95796 6.47918H8.52683C8.79013 6.47918 8.84539 6.53784 8.84761 6.54036C8.86359 6.55828 8.88459 6.64128 8.84992 6.82721L8.49753 8.71852C8.48791 8.77011 8.5009 8.82346 8.53296 8.86402C8.56502 8.90458 8.61277 8.92804 8.66316 8.92804H9.56305C9.64381 8.92804 9.71327 8.86833 9.72868 8.78565L10.0993 6.79651C10.1863 6.32958 10.1119 5.97932 9.87823 5.75538C9.65529 5.54184 9.28184 5.43805 8.73653 5.43805H8.15206L8.32481 4.51115C8.3344 4.45957 8.32143 4.40619 8.28937 4.36566C8.25731 4.3251 8.20956 4.30161 8.15917 4.30161ZM8.15917 4.47757L7.94739 5.61402H8.73653C9.23307 5.61402 9.57556 5.70441 9.76406 5.88495C9.95256 6.06561 10.009 6.35832 9.93369 6.76296L9.56305 8.75207H8.66316L9.01555 6.86079C9.05565 6.64565 9.04092 6.49889 8.97129 6.42065C8.90163 6.3424 8.75346 6.30322 8.52683 6.30322H7.81885L7.36255 8.75207H6.47672L7.27335 4.47757H8.15917Z" fill="white"/>
<path d="M11.4182 7.98956C11.7575 7.98956 12.0108 7.9243 12.171 7.79567C12.3296 7.66839 12.4391 7.44782 12.4965 7.14011C12.55 6.85252 12.5296 6.65172 12.4359 6.54335C12.3401 6.43267 12.1329 6.37654 11.8202 6.37654H11.278L10.9774 7.98956H11.4182ZM9.64479 9.9765C9.61962 9.9765 9.59572 9.96477 9.57972 9.94448C9.56369 9.92421 9.55716 9.89752 9.56197 9.87174L10.3586 5.59721C10.3663 5.55589 10.401 5.52604 10.4414 5.52604H12.1583C12.698 5.52604 13.0996 5.67883 13.352 5.98023C13.6058 6.28319 13.6842 6.70671 13.585 7.239C13.5445 7.45585 13.4751 7.65724 13.3785 7.83755C13.2818 8.01806 13.154 8.18508 12.9986 8.33407C12.8125 8.51566 12.6019 8.64734 12.3732 8.72483C12.1482 8.80129 11.8592 8.84006 11.5142 8.84006H10.8189L10.6205 9.90529C10.6128 9.94665 10.5781 9.9765 10.5376 9.9765H9.64479Z" fill="black"/>
<path d="M11.3476 6.46452H11.8202C12.1976 6.46452 12.3288 6.55089 12.3733 6.60236C12.4472 6.68782 12.4612 6.86801 12.4136 7.12339C12.3603 7.40937 12.2613 7.61211 12.1196 7.72596C11.9744 7.84251 11.7384 7.90157 11.4182 7.90157H11.0798L11.3476 6.46452ZM12.1583 5.43805H10.4414C10.3606 5.43805 10.2912 5.49776 10.2758 5.58044L9.47918 9.85497C9.46956 9.90655 9.48255 9.9599 9.51458 10.0005C9.54664 10.041 9.59439 10.0645 9.64478 10.0645H10.5376C10.6184 10.0645 10.6879 10.0048 10.7033 9.9221L10.8885 8.92804H11.5142C11.868 8.92804 12.1659 8.8878 12.3994 8.80847C12.6396 8.72709 12.8606 8.58907 13.0562 8.39829C13.218 8.24312 13.3512 8.06894 13.4521 7.88051C13.5531 7.69203 13.6257 7.48183 13.6678 7.25578C13.7722 6.69547 13.6874 6.24682 13.4155 5.92234C13.1464 5.601 12.7234 5.43805 12.1583 5.43805ZM10.8751 8.07754H11.4182C11.7782 8.07754 12.0463 8.00683 12.2225 7.86538C12.3987 7.72391 12.5175 7.48779 12.5793 7.15691C12.6384 6.83924 12.6115 6.61506 12.4985 6.48446C12.3855 6.35387 12.1594 6.28855 11.8202 6.28855H11.2085L10.8751 8.07754ZM12.1583 5.61402C12.6748 5.61402 13.0516 5.75538 13.2885 6.03812C13.5253 6.32087 13.5966 6.71553 13.5021 7.22223C13.4632 7.43095 13.3974 7.62179 13.3048 7.79467C13.2121 7.96768 13.0911 8.12587 12.9415 8.26931C12.7632 8.44331 12.5651 8.56731 12.3472 8.64116C12.1292 8.71521 11.8516 8.75207 11.5142 8.75207H10.7494L10.5376 9.88852H9.64478L10.4414 5.61402H12.1583Z" fill="white"/>
</g>
</g>
<defs>
<radialGradient id="paint0_radial_206_2" cx="0" cy="0" r="1" gradientUnits="userSpaceOnUse" gradientTransform="translate(4.89313 4.7342) scale(10.2097 10.6476)">
<stop stop-color="#AEB2D5"/>
<stop offset="0.3" stop-color="#AEB2D5"/>
<stop offset="0.75" stop-color="#484C89"/>
<stop offset="1" stop-color="#484C89"/>
</radialGradient>
<clipPath id="clip0_206_2">
<rect width="16" height="9" fill="white" transform="translate(0 3)"/>
</clipPath>
</defs>
</svg>
